<svg width="76" height="40" viewBox="0 0 76 40" fill="none" xmlns="http://www.w3.org/2000/svg">
<path d="M11.1074 21.3291C11.1074 23.6566 10.71 25.3861 9.91504 26.5176C9.12012 27.6491 7.8776 28.2148 6.1875 28.2148C4.51888 28.2148 3.28353 27.6634 2.48145 26.5605C1.67936 25.4505 1.264 23.7962 1.23535 21.5977V18.9443C1.23535 16.6455 1.63281 14.9375 2.42773 13.8203C3.22266 12.7031 4.46875 12.1445 6.16602 12.1445C7.84896 12.1445 9.08789 12.6852 9.88281 13.7666C10.6777 14.8408 11.0859 16.5023 11.1074 18.751V21.3291ZM9.12012 18.6113C9.12012 16.9284 8.88379 15.7038 8.41113 14.9375C7.93848 14.1641 7.1901 13.7773 6.16602 13.7773C5.14909 13.7773 4.40788 14.1605 3.94238 14.9268C3.47689 15.693 3.23698 16.8711 3.22266 18.4609V21.6406C3.22266 23.3307 3.46615 24.5804 3.95312 25.3896C4.44727 26.1917 5.19206 26.5928 6.1875 26.5928C7.16862 26.5928 7.89551 26.2132 8.36816 25.4541C8.84798 24.695 9.09863 23.499 9.12012 21.8662V18.6113ZM20.1846 28H18.1865V14.7549L14.1797 16.2266V14.4219L19.873 12.2842H20.1846V28Z" fill="white"/>
<path d="M38.4805 30.9004H36.8799V12.3594H38.4805V30.9004Z" fill="white"/>
<path d="M62.1074 21.3291C62.1074 23.6566 61.71 25.3861 60.915 26.5176C60.1201 27.6491 58.8776 28.2148 57.1875 28.2148C55.5189 28.2148 54.2835 27.6634 53.4814 26.5605C52.6794 25.4505 52.264 23.7962 52.2354 21.5977V18.9443C52.2354 16.6455 52.6328 14.9375 53.4277 13.8203C54.2227 12.7031 55.4688 12.1445 57.166 12.1445C58.849 12.1445 60.0879 12.6852 60.8828 13.7666C61.6777 14.8408 62.0859 16.5023 62.1074 18.751V21.3291ZM60.1201 18.6113C60.1201 16.9284 59.8838 15.7038 59.4111 14.9375C58.9385 14.1641 58.1901 13.7773 57.166 13.7773C56.1491 13.7773 55.4079 14.1605 54.9424 14.9268C54.4769 15.693 54.237 16.8711 54.2227 18.4609V21.6406C54.2227 23.3307 54.4661 24.5804 54.9531 25.3896C55.4473 26.1917 56.1921 26.5928 57.1875 26.5928C58.1686 26.5928 58.8955 26.2132 59.3682 25.4541C59.848 24.695 60.0986 23.499 60.1201 21.8662V18.6113ZM65.5664 20.1582L66.3613 12.3594H74.375V14.1963H68.0479L67.5752 18.4609C68.3415 18.0098 69.2116 17.7842 70.1855 17.7842C71.6107 17.7842 72.7422 18.2568 73.5801 19.2021C74.418 20.1403 74.8369 21.4115 74.8369 23.0156C74.8369 24.627 74.4001 25.8981 73.5264 26.8291C72.6598 27.7529 71.446 28.2148 69.8848 28.2148C68.5026 28.2148 67.3747 27.8317 66.501 27.0654C65.6273 26.2992 65.1296 25.2393 65.0078 23.8857H66.8877C67.0094 24.7809 67.3281 25.4577 67.8438 25.916C68.3594 26.3672 69.0397 26.5928 69.8848 26.5928C70.8086 26.5928 71.5319 26.2777 72.0547 25.6475C72.5846 25.0173 72.8496 24.1471 72.8496 23.0371C72.8496 21.9915 72.5632 21.1536 71.9902 20.5234C71.4245 19.8861 70.6689 19.5674 69.7236 19.5674C68.8571 19.5674 68.1768 19.7572 67.6826 20.1367L67.1562 20.5664L65.5664 20.1582Z" fill="white"/>
</svg>
